<mxfile host="app.diagrams.net" modified="2023-03-06T03:26:29.785Z" agent="5.0 (Windows NT 10.0; Win64; x64) AppleWebKit/537.36 (KHTML, like Gecko) Chrome/110.0.0.0 Safari/537.36" etag="v0FuQPqqdLod6MFqz5RX" version="20.7.4" type="github">
  <diagram name="Page-1" id="0783ab3e-0a74-02c8-0abd-f7b4e66b4bec">
    <mxGraphModel dx="2284" dy="756" grid="1" gridSize="10" guides="1" tooltips="1" connect="1" arrows="1" fold="1" page="1" pageScale="1" pageWidth="850" pageHeight="1100" background="none" math="0" shadow="0">
      <root>
        <mxCell id="0" />
        <mxCell id="1" parent="0" />
        <mxCell id="Tt8dJ6z3QPdiX9zE3w82-25" value="" style="edgeStyle=orthogonalEdgeStyle;html=1;verticalAlign=bottom;endArrow=open;endSize=8;strokeColor=#ff0000;rounded=0;" parent="1" edge="1">
          <mxGeometry relative="1" as="geometry">
            <mxPoint x="425" y="180" as="targetPoint" />
            <mxPoint x="425" y="120" as="sourcePoint" />
          </mxGeometry>
        </mxCell>
        <mxCell id="Tt8dJ6z3QPdiX9zE3w82-38" value="Display Homescreen" style="rounded=1;whiteSpace=wrap;html=1;arcSize=40;fontColor=#000000;fillColor=#ffffc0;strokeColor=#ff0000;labelBackgroundColor=none;" parent="1" vertex="1">
          <mxGeometry x="365" y="390" width="120" height="40" as="geometry" />
        </mxCell>
        <mxCell id="Tt8dJ6z3QPdiX9zE3w82-39" value="" style="edgeStyle=orthogonalEdgeStyle;html=1;verticalAlign=bottom;endArrow=open;endSize=8;strokeColor=#ff0000;rounded=0;entryX=0.5;entryY=0;entryDx=0;entryDy=0;" parent="1" source="Tt8dJ6z3QPdiX9zE3w82-38" target="Tt8dJ6z3QPdiX9zE3w82-129" edge="1">
          <mxGeometry relative="1" as="geometry">
            <mxPoint x="425" y="500" as="targetPoint" />
            <Array as="points" />
          </mxGeometry>
        </mxCell>
        <mxCell id="K-W-6oQfqODlWTXCF_eY-4" style="edgeStyle=orthogonalEdgeStyle;rounded=0;orthogonalLoop=1;jettySize=auto;html=1;entryX=0.5;entryY=0;entryDx=0;entryDy=0;fillColor=#FF3333;strokeColor=#FF3333;" edge="1" parent="1" source="Tt8dJ6z3QPdiX9zE3w82-42" target="Tt8dJ6z3QPdiX9zE3w82-43">
          <mxGeometry relative="1" as="geometry" />
        </mxCell>
        <mxCell id="K-W-6oQfqODlWTXCF_eY-8" style="edgeStyle=orthogonalEdgeStyle;rounded=0;orthogonalLoop=1;jettySize=auto;html=1;exitX=0.5;exitY=1;exitDx=0;exitDy=0;entryX=0.5;entryY=0;entryDx=0;entryDy=0;strokeColor=#FF3333;fillColor=#FF3333;" edge="1" parent="1" source="Tt8dJ6z3QPdiX9zE3w82-42" target="K-W-6oQfqODlWTXCF_eY-7">
          <mxGeometry relative="1" as="geometry" />
        </mxCell>
        <mxCell id="K-W-6oQfqODlWTXCF_eY-23" style="edgeStyle=orthogonalEdgeStyle;rounded=0;orthogonalLoop=1;jettySize=auto;html=1;exitX=0;exitY=0.25;exitDx=0;exitDy=0;entryX=0.912;entryY=0.375;entryDx=0;entryDy=0;entryPerimeter=0;strokeColor=#FF3333;fillColor=#FF3333;" edge="1" parent="1" source="Tt8dJ6z3QPdiX9zE3w82-42" target="Tt8dJ6z3QPdiX9zE3w82-129">
          <mxGeometry relative="1" as="geometry" />
        </mxCell>
        <mxCell id="Tt8dJ6z3QPdiX9zE3w82-42" value="Manage Customers" style="rounded=1;whiteSpace=wrap;html=1;arcSize=40;fontColor=#000000;fillColor=#ffffc0;strokeColor=#ff0000;labelBackgroundColor=none;" parent="1" vertex="1">
          <mxGeometry x="700" y="540" width="120" height="40" as="geometry" />
        </mxCell>
        <mxCell id="K-W-6oQfqODlWTXCF_eY-11" style="edgeStyle=orthogonalEdgeStyle;rounded=0;orthogonalLoop=1;jettySize=auto;html=1;exitX=0.5;exitY=1;exitDx=0;exitDy=0;entryX=0.5;entryY=0;entryDx=0;entryDy=0;strokeColor=#FF3333;fillColor=#FF3333;" edge="1" parent="1" source="Tt8dJ6z3QPdiX9zE3w82-43" target="Tt8dJ6z3QPdiX9zE3w82-82">
          <mxGeometry relative="1" as="geometry" />
        </mxCell>
        <mxCell id="Tt8dJ6z3QPdiX9zE3w82-43" value="Find Customer" style="rounded=1;whiteSpace=wrap;html=1;arcSize=40;fontColor=#000000;fillColor=#ffffc0;strokeColor=#ff0000;labelBackgroundColor=none;" parent="1" vertex="1">
          <mxGeometry x="920" y="580" width="120" height="40" as="geometry" />
        </mxCell>
        <mxCell id="Tt8dJ6z3QPdiX9zE3w82-88" style="edgeStyle=orthogonalEdgeStyle;rounded=0;orthogonalLoop=1;jettySize=auto;html=1;exitX=0.75;exitY=1;exitDx=0;exitDy=0;entryX=0.5;entryY=0;entryDx=0;entryDy=0;strokeColor=#FF3333;" parent="1" source="Tt8dJ6z3QPdiX9zE3w82-44" target="Tt8dJ6z3QPdiX9zE3w82-46" edge="1">
          <mxGeometry relative="1" as="geometry">
            <Array as="points">
              <mxPoint x="449.94" y="810" />
              <mxPoint x="519.94" y="810" />
              <mxPoint x="519.94" y="870" />
            </Array>
          </mxGeometry>
        </mxCell>
        <mxCell id="Tt8dJ6z3QPdiX9zE3w82-96" style="edgeStyle=orthogonalEdgeStyle;rounded=0;orthogonalLoop=1;jettySize=auto;html=1;exitX=0.5;exitY=1;exitDx=0;exitDy=0;entryX=0.5;entryY=0;entryDx=0;entryDy=0;strokeColor=#FF3333;" parent="1" source="Tt8dJ6z3QPdiX9zE3w82-44" target="Tt8dJ6z3QPdiX9zE3w82-95" edge="1">
          <mxGeometry relative="1" as="geometry" />
        </mxCell>
        <mxCell id="Tt8dJ6z3QPdiX9zE3w82-136" style="edgeStyle=orthogonalEdgeStyle;rounded=0;orthogonalLoop=1;jettySize=auto;html=1;exitX=0.25;exitY=0;exitDx=0;exitDy=0;entryX=0;entryY=1;entryDx=0;entryDy=0;strokeColor=#FF3333;" parent="1" source="Tt8dJ6z3QPdiX9zE3w82-44" target="Tt8dJ6z3QPdiX9zE3w82-129" edge="1">
          <mxGeometry x="-0.4545" y="-10" relative="1" as="geometry">
            <Array as="points">
              <mxPoint x="393" y="660" />
            </Array>
            <mxPoint y="1" as="offset" />
          </mxGeometry>
        </mxCell>
        <mxCell id="K-W-6oQfqODlWTXCF_eY-21" style="edgeStyle=orthogonalEdgeStyle;rounded=0;orthogonalLoop=1;jettySize=auto;html=1;exitX=0;exitY=0.75;exitDx=0;exitDy=0;entryX=0.5;entryY=0;entryDx=0;entryDy=0;strokeColor=#FF3333;fillColor=#FF3333;" edge="1" parent="1" source="Tt8dJ6z3QPdiX9zE3w82-44" target="Tt8dJ6z3QPdiX9zE3w82-47">
          <mxGeometry relative="1" as="geometry">
            <Array as="points">
              <mxPoint x="365" y="710" />
              <mxPoint x="260" y="710" />
            </Array>
          </mxGeometry>
        </mxCell>
        <mxCell id="Tt8dJ6z3QPdiX9zE3w82-44" value="List Product" style="rounded=1;whiteSpace=wrap;html=1;arcSize=40;fontColor=#000000;fillColor=#ffffc0;strokeColor=#ff0000;labelBackgroundColor=none;" parent="1" vertex="1">
          <mxGeometry x="365" y="660" width="120" height="40" as="geometry" />
        </mxCell>
        <mxCell id="Tt8dJ6z3QPdiX9zE3w82-46" value="Add product" style="rounded=1;whiteSpace=wrap;html=1;arcSize=40;fontColor=#000000;fillColor=#ffffc0;strokeColor=#ff0000;labelBackgroundColor=none;" parent="1" vertex="1">
          <mxGeometry x="539.94" y="870" width="120" height="40" as="geometry" />
        </mxCell>
        <mxCell id="Tt8dJ6z3QPdiX9zE3w82-116" style="edgeStyle=orthogonalEdgeStyle;rounded=0;orthogonalLoop=1;jettySize=auto;html=1;exitX=0.5;exitY=1;exitDx=0;exitDy=0;entryX=0.5;entryY=0;entryDx=0;entryDy=0;strokeColor=#FF3333;" parent="1" source="Tt8dJ6z3QPdiX9zE3w82-47" target="Tt8dJ6z3QPdiX9zE3w82-115" edge="1">
          <mxGeometry relative="1" as="geometry" />
        </mxCell>
        <mxCell id="Tt8dJ6z3QPdiX9zE3w82-47" value="Remove product" style="rounded=1;whiteSpace=wrap;html=1;arcSize=40;fontColor=#000000;fillColor=#ffffc0;strokeColor=#ff0000;labelBackgroundColor=none;" parent="1" vertex="1">
          <mxGeometry x="200.04" y="740" width="120" height="40" as="geometry" />
        </mxCell>
        <mxCell id="Tt8dJ6z3QPdiX9zE3w82-80" style="edgeStyle=orthogonalEdgeStyle;rounded=0;orthogonalLoop=1;jettySize=auto;html=1;exitX=0.5;exitY=1;exitDx=0;exitDy=0;entryX=0.5;entryY=0;entryDx=0;entryDy=0;strokeColor=#FF3333;" parent="1" source="Tt8dJ6z3QPdiX9zE3w82-72" target="Tt8dJ6z3QPdiX9zE3w82-76" edge="1">
          <mxGeometry relative="1" as="geometry" />
        </mxCell>
        <mxCell id="Tt8dJ6z3QPdiX9zE3w82-72" value="Sign in" style="rounded=1;whiteSpace=wrap;html=1;arcSize=40;fontColor=#000000;fillColor=#ffffc0;strokeColor=#ff0000;labelBackgroundColor=none;" parent="1" vertex="1">
          <mxGeometry x="365" y="190" width="120" height="40" as="geometry" />
        </mxCell>
        <mxCell id="Tt8dJ6z3QPdiX9zE3w82-76" value="Sign in Successful" style="rhombus;whiteSpace=wrap;html=1;fillColor=#ffffc0;strokeColor=#ff0000;labelBackgroundColor=none;" parent="1" vertex="1">
          <mxGeometry x="385" y="270" width="80" height="40" as="geometry" />
        </mxCell>
        <mxCell id="Tt8dJ6z3QPdiX9zE3w82-77" value="no" style="edgeStyle=orthogonalEdgeStyle;html=1;align=left;verticalAlign=bottom;endArrow=open;endSize=8;strokeColor=#ff0000;rounded=0;entryX=1;entryY=0.5;entryDx=0;entryDy=0;exitX=1;exitY=0.5;exitDx=0;exitDy=0;" parent="1" source="Tt8dJ6z3QPdiX9zE3w82-76" target="Tt8dJ6z3QPdiX9zE3w82-72" edge="1">
          <mxGeometry x="-1" relative="1" as="geometry">
            <mxPoint x="500" y="270" as="targetPoint" />
            <Array as="points">
              <mxPoint x="510" y="290" />
              <mxPoint x="510" y="210" />
            </Array>
          </mxGeometry>
        </mxCell>
        <mxCell id="Tt8dJ6z3QPdiX9zE3w82-78" value="yes" style="edgeStyle=orthogonalEdgeStyle;html=1;align=left;verticalAlign=top;endArrow=open;endSize=8;strokeColor=#ff0000;rounded=0;" parent="1" source="Tt8dJ6z3QPdiX9zE3w82-76" edge="1">
          <mxGeometry x="-1" relative="1" as="geometry">
            <mxPoint x="425" y="390" as="targetPoint" />
            <Array as="points">
              <mxPoint x="425" y="370" />
            </Array>
          </mxGeometry>
        </mxCell>
        <mxCell id="K-W-6oQfqODlWTXCF_eY-10" style="edgeStyle=orthogonalEdgeStyle;rounded=0;orthogonalLoop=1;jettySize=auto;html=1;strokeColor=#FF3333;fillColor=#FF3333;" edge="1" parent="1" source="Tt8dJ6z3QPdiX9zE3w82-82" target="K-W-6oQfqODlWTXCF_eY-9">
          <mxGeometry relative="1" as="geometry" />
        </mxCell>
        <mxCell id="Tt8dJ6z3QPdiX9zE3w82-82" value="Customer found" style="rhombus;whiteSpace=wrap;html=1;fillColor=#ffffc0;strokeColor=#ff0000;labelBackgroundColor=none;" parent="1" vertex="1">
          <mxGeometry x="940" y="670" width="80" height="40" as="geometry" />
        </mxCell>
        <mxCell id="Tt8dJ6z3QPdiX9zE3w82-93" value="Show Customer data" style="rounded=1;whiteSpace=wrap;html=1;arcSize=40;fontColor=#000000;fillColor=#ffffc0;strokeColor=#ff0000;labelBackgroundColor=none;" parent="1" vertex="1">
          <mxGeometry x="780" y="820" width="120" height="40" as="geometry" />
        </mxCell>
        <mxCell id="Tt8dJ6z3QPdiX9zE3w82-127" style="edgeStyle=orthogonalEdgeStyle;rounded=0;orthogonalLoop=1;jettySize=auto;html=1;exitX=0.5;exitY=1;exitDx=0;exitDy=0;entryX=0.5;entryY=0;entryDx=0;entryDy=0;strokeColor=#FF3333;" parent="1" source="Tt8dJ6z3QPdiX9zE3w82-95" target="Tt8dJ6z3QPdiX9zE3w82-97" edge="1">
          <mxGeometry relative="1" as="geometry" />
        </mxCell>
        <mxCell id="Tt8dJ6z3QPdiX9zE3w82-95" value="Find Product" style="rounded=1;whiteSpace=wrap;html=1;arcSize=40;fontColor=#000000;fillColor=#ffffc0;strokeColor=#ff0000;labelBackgroundColor=none;" parent="1" vertex="1">
          <mxGeometry x="359.94" y="830" width="120" height="40" as="geometry" />
        </mxCell>
        <mxCell id="Tt8dJ6z3QPdiX9zE3w82-98" style="edgeStyle=orthogonalEdgeStyle;rounded=0;orthogonalLoop=1;jettySize=auto;html=1;exitX=1;exitY=0.5;exitDx=0;exitDy=0;entryX=1;entryY=0.5;entryDx=0;entryDy=0;strokeColor=#FF3333;" parent="1" source="Tt8dJ6z3QPdiX9zE3w82-97" target="Tt8dJ6z3QPdiX9zE3w82-95" edge="1">
          <mxGeometry relative="1" as="geometry">
            <Array as="points">
              <mxPoint x="489.94" y="940" />
              <mxPoint x="489.94" y="850" />
            </Array>
          </mxGeometry>
        </mxCell>
        <mxCell id="Tt8dJ6z3QPdiX9zE3w82-99" value="no" style="edgeLabel;html=1;align=center;verticalAlign=middle;resizable=0;points=[];" parent="Tt8dJ6z3QPdiX9zE3w82-98" vertex="1" connectable="0">
          <mxGeometry relative="1" as="geometry">
            <mxPoint as="offset" />
          </mxGeometry>
        </mxCell>
        <mxCell id="Tt8dJ6z3QPdiX9zE3w82-100" value="yes" style="edgeStyle=orthogonalEdgeStyle;rounded=0;orthogonalLoop=1;jettySize=auto;html=1;exitX=0.5;exitY=1;exitDx=0;exitDy=0;strokeColor=#FF3333;" parent="1" source="Tt8dJ6z3QPdiX9zE3w82-97" edge="1">
          <mxGeometry relative="1" as="geometry">
            <mxPoint x="419.94" y="1020" as="targetPoint" />
          </mxGeometry>
        </mxCell>
        <mxCell id="Tt8dJ6z3QPdiX9zE3w82-97" value="Product found" style="rhombus;whiteSpace=wrap;html=1;fillColor=#ffffc0;strokeColor=#ff0000;labelBackgroundColor=none;" parent="1" vertex="1">
          <mxGeometry x="379.94" y="920" width="80" height="40" as="geometry" />
        </mxCell>
        <mxCell id="Tt8dJ6z3QPdiX9zE3w82-102" value="Show product data" style="rounded=1;whiteSpace=wrap;html=1;arcSize=40;fontColor=#000000;fillColor=#ffffc0;strokeColor=#ff0000;labelBackgroundColor=none;" parent="1" vertex="1">
          <mxGeometry x="359.94" y="1020" width="120" height="40" as="geometry" />
        </mxCell>
        <mxCell id="Tt8dJ6z3QPdiX9zE3w82-117" style="edgeStyle=orthogonalEdgeStyle;rounded=0;orthogonalLoop=1;jettySize=auto;html=1;exitX=0;exitY=0.5;exitDx=0;exitDy=0;entryX=0;entryY=0.5;entryDx=0;entryDy=0;strokeColor=#FF3333;" parent="1" source="Tt8dJ6z3QPdiX9zE3w82-115" target="Tt8dJ6z3QPdiX9zE3w82-44" edge="1">
          <mxGeometry relative="1" as="geometry">
            <Array as="points">
              <mxPoint x="190" y="820" />
              <mxPoint x="190" y="680" />
            </Array>
            <mxPoint x="305.1" y="690" as="targetPoint" />
          </mxGeometry>
        </mxCell>
        <mxCell id="Tt8dJ6z3QPdiX9zE3w82-118" value="yes" style="edgeLabel;html=1;align=center;verticalAlign=middle;resizable=0;points=[];" parent="Tt8dJ6z3QPdiX9zE3w82-117" vertex="1" connectable="0">
          <mxGeometry x="-0.0593" y="-1" relative="1" as="geometry">
            <mxPoint as="offset" />
          </mxGeometry>
        </mxCell>
        <mxCell id="Tt8dJ6z3QPdiX9zE3w82-119" style="edgeStyle=orthogonalEdgeStyle;rounded=0;orthogonalLoop=1;jettySize=auto;html=1;exitX=1;exitY=0.5;exitDx=0;exitDy=0;entryX=1;entryY=0.5;entryDx=0;entryDy=0;strokeColor=#FF3333;" parent="1" source="Tt8dJ6z3QPdiX9zE3w82-115" target="Tt8dJ6z3QPdiX9zE3w82-47" edge="1">
          <mxGeometry relative="1" as="geometry">
            <Array as="points">
              <mxPoint x="340" y="820" />
              <mxPoint x="340" y="760" />
            </Array>
          </mxGeometry>
        </mxCell>
        <mxCell id="Tt8dJ6z3QPdiX9zE3w82-120" value="no" style="edgeLabel;html=1;align=center;verticalAlign=middle;resizable=0;points=[];" parent="Tt8dJ6z3QPdiX9zE3w82-119" vertex="1" connectable="0">
          <mxGeometry x="-0.1" y="2" relative="1" as="geometry">
            <mxPoint as="offset" />
          </mxGeometry>
        </mxCell>
        <mxCell id="Tt8dJ6z3QPdiX9zE3w82-115" value="Product Removed" style="rhombus;whiteSpace=wrap;html=1;fillColor=#ffffc0;strokeColor=#ff0000;labelBackgroundColor=none;" parent="1" vertex="1">
          <mxGeometry x="220.04" y="800" width="80" height="40" as="geometry" />
        </mxCell>
        <mxCell id="Tt8dJ6z3QPdiX9zE3w82-123" style="edgeStyle=orthogonalEdgeStyle;rounded=0;orthogonalLoop=1;jettySize=auto;html=1;exitX=0;exitY=0.5;exitDx=0;exitDy=0;entryX=0;entryY=0.5;entryDx=0;entryDy=0;strokeColor=#FF3333;" parent="1" source="Tt8dJ6z3QPdiX9zE3w82-121" target="Tt8dJ6z3QPdiX9zE3w82-46" edge="1">
          <mxGeometry relative="1" as="geometry" />
        </mxCell>
        <mxCell id="Tt8dJ6z3QPdiX9zE3w82-126" value="no" style="edgeLabel;html=1;align=center;verticalAlign=middle;resizable=0;points=[];" parent="Tt8dJ6z3QPdiX9zE3w82-123" vertex="1" connectable="0">
          <mxGeometry x="-0.0615" y="2" relative="1" as="geometry">
            <mxPoint as="offset" />
          </mxGeometry>
        </mxCell>
        <mxCell id="Tt8dJ6z3QPdiX9zE3w82-124" style="edgeStyle=orthogonalEdgeStyle;rounded=0;orthogonalLoop=1;jettySize=auto;html=1;exitX=1;exitY=0.5;exitDx=0;exitDy=0;entryX=1;entryY=0.5;entryDx=0;entryDy=0;strokeColor=#FF3333;" parent="1" source="Tt8dJ6z3QPdiX9zE3w82-121" target="Tt8dJ6z3QPdiX9zE3w82-44" edge="1">
          <mxGeometry relative="1" as="geometry">
            <Array as="points">
              <mxPoint x="680" y="960" />
              <mxPoint x="680" y="800" />
              <mxPoint x="500" y="800" />
              <mxPoint x="500" y="680" />
            </Array>
          </mxGeometry>
        </mxCell>
        <mxCell id="Tt8dJ6z3QPdiX9zE3w82-125" value="yes" style="edgeLabel;html=1;align=center;verticalAlign=middle;resizable=0;points=[];" parent="Tt8dJ6z3QPdiX9zE3w82-124" vertex="1" connectable="0">
          <mxGeometry x="-0.6923" y="1" relative="1" as="geometry">
            <mxPoint as="offset" />
          </mxGeometry>
        </mxCell>
        <mxCell id="Tt8dJ6z3QPdiX9zE3w82-121" value="Product Added" style="rhombus;whiteSpace=wrap;html=1;fillColor=#ffffc0;strokeColor=#ff0000;labelBackgroundColor=none;" parent="1" vertex="1">
          <mxGeometry x="559.94" y="940" width="80" height="40" as="geometry" />
        </mxCell>
        <mxCell id="Tt8dJ6z3QPdiX9zE3w82-128" value="Actor" style="shape=umlActor;verticalLabelPosition=bottom;verticalAlign=top;html=1;labelBackgroundColor=none;fillColor=#000000;gradientColor=none;" parent="1" vertex="1">
          <mxGeometry x="410" y="50" width="30" height="60" as="geometry" />
        </mxCell>
        <mxCell id="Tt8dJ6z3QPdiX9zE3w82-134" style="edgeStyle=orthogonalEdgeStyle;rounded=0;orthogonalLoop=1;jettySize=auto;html=1;exitX=0.5;exitY=1;exitDx=0;exitDy=0;entryX=0.5;entryY=0;entryDx=0;entryDy=0;strokeColor=#FF3333;" parent="1" source="Tt8dJ6z3QPdiX9zE3w82-129" target="Tt8dJ6z3QPdiX9zE3w82-44" edge="1">
          <mxGeometry relative="1" as="geometry" />
        </mxCell>
        <mxCell id="K-W-6oQfqODlWTXCF_eY-20" style="edgeStyle=orthogonalEdgeStyle;rounded=0;orthogonalLoop=1;jettySize=auto;html=1;exitX=1;exitY=0.5;exitDx=0;exitDy=0;entryX=0;entryY=0.5;entryDx=0;entryDy=0;strokeColor=#FF3333;fillColor=#FF3333;" edge="1" parent="1" source="Tt8dJ6z3QPdiX9zE3w82-129" target="Tt8dJ6z3QPdiX9zE3w82-42">
          <mxGeometry relative="1" as="geometry" />
        </mxCell>
        <mxCell id="K-W-6oQfqODlWTXCF_eY-25" style="edgeStyle=orthogonalEdgeStyle;rounded=0;orthogonalLoop=1;jettySize=auto;html=1;exitX=0;exitY=0.5;exitDx=0;exitDy=0;strokeColor=#FF3333;fillColor=#FF3333;" edge="1" parent="1" source="Tt8dJ6z3QPdiX9zE3w82-129" target="K-W-6oQfqODlWTXCF_eY-24">
          <mxGeometry relative="1" as="geometry" />
        </mxCell>
        <mxCell id="Tt8dJ6z3QPdiX9zE3w82-129" value="Click navbar Buttons" style="rhombus;whiteSpace=wrap;html=1;fillColor=#ffffc0;strokeColor=#ff0000;labelBackgroundColor=none;" parent="1" vertex="1">
          <mxGeometry x="362" y="520" width="125" height="80" as="geometry" />
        </mxCell>
        <mxCell id="K-W-6oQfqODlWTXCF_eY-7" value="Add new Customer" style="rounded=1;whiteSpace=wrap;html=1;arcSize=40;fontColor=#000000;fillColor=#ffffc0;strokeColor=#ff0000;labelBackgroundColor=none;" vertex="1" parent="1">
          <mxGeometry x="700" y="600" width="120" height="40" as="geometry" />
        </mxCell>
        <mxCell id="K-W-6oQfqODlWTXCF_eY-16" style="edgeStyle=orthogonalEdgeStyle;rounded=0;orthogonalLoop=1;jettySize=auto;html=1;exitX=0;exitY=0.5;exitDx=0;exitDy=0;entryX=0.5;entryY=0;entryDx=0;entryDy=0;strokeColor=#FF3333;fillColor=#FF3333;" edge="1" parent="1" source="K-W-6oQfqODlWTXCF_eY-9" target="Tt8dJ6z3QPdiX9zE3w82-93">
          <mxGeometry relative="1" as="geometry" />
        </mxCell>
        <mxCell id="K-W-6oQfqODlWTXCF_eY-17" style="edgeStyle=orthogonalEdgeStyle;rounded=0;orthogonalLoop=1;jettySize=auto;html=1;exitX=0.5;exitY=1;exitDx=0;exitDy=0;entryX=0.5;entryY=0;entryDx=0;entryDy=0;strokeColor=#FF3333;fillColor=#FF3333;" edge="1" parent="1" source="K-W-6oQfqODlWTXCF_eY-9" target="K-W-6oQfqODlWTXCF_eY-13">
          <mxGeometry relative="1" as="geometry" />
        </mxCell>
        <mxCell id="K-W-6oQfqODlWTXCF_eY-19" style="edgeStyle=orthogonalEdgeStyle;rounded=0;orthogonalLoop=1;jettySize=auto;html=1;exitX=1;exitY=0.5;exitDx=0;exitDy=0;entryX=0.5;entryY=0;entryDx=0;entryDy=0;strokeColor=#FF3333;fillColor=#FF3333;" edge="1" parent="1" source="K-W-6oQfqODlWTXCF_eY-9" target="K-W-6oQfqODlWTXCF_eY-14">
          <mxGeometry relative="1" as="geometry" />
        </mxCell>
        <mxCell id="K-W-6oQfqODlWTXCF_eY-9" value="Manage Customers" style="rounded=1;whiteSpace=wrap;html=1;arcSize=40;fontColor=#000000;fillColor=#ffffc0;strokeColor=#ff0000;labelBackgroundColor=none;" vertex="1" parent="1">
          <mxGeometry x="920" y="750" width="120" height="40" as="geometry" />
        </mxCell>
        <mxCell id="K-W-6oQfqODlWTXCF_eY-13" value="Remove Customer" style="rounded=1;whiteSpace=wrap;html=1;arcSize=40;fontColor=#000000;fillColor=#ffffc0;strokeColor=#ff0000;labelBackgroundColor=none;" vertex="1" parent="1">
          <mxGeometry x="920" y="820" width="120" height="40" as="geometry" />
        </mxCell>
        <mxCell id="K-W-6oQfqODlWTXCF_eY-14" value="Edit Customer" style="rounded=1;whiteSpace=wrap;html=1;arcSize=40;fontColor=#000000;fillColor=#ffffc0;strokeColor=#ff0000;labelBackgroundColor=none;" vertex="1" parent="1">
          <mxGeometry x="1060" y="820" width="120" height="40" as="geometry" />
        </mxCell>
        <mxCell id="K-W-6oQfqODlWTXCF_eY-26" style="edgeStyle=orthogonalEdgeStyle;rounded=0;orthogonalLoop=1;jettySize=auto;html=1;exitX=0.5;exitY=1;exitDx=0;exitDy=0;strokeColor=#FF3333;fillColor=#FF3333;" edge="1" parent="1" source="K-W-6oQfqODlWTXCF_eY-24">
          <mxGeometry relative="1" as="geometry">
            <mxPoint x="-20" y="650" as="targetPoint" />
          </mxGeometry>
        </mxCell>
        <mxCell id="K-W-6oQfqODlWTXCF_eY-24" value="Show Sales list" style="rounded=1;whiteSpace=wrap;html=1;arcSize=40;fontColor=#000000;fillColor=#ffffc0;strokeColor=#ff0000;labelBackgroundColor=none;" vertex="1" parent="1">
          <mxGeometry x="-80" y="540" width="120" height="40" as="geometry" />
        </mxCell>
        <mxCell id="K-W-6oQfqODlWTXCF_eY-27" value="Show Sales list data" style="rounded=1;whiteSpace=wrap;html=1;arcSize=40;fontColor=#000000;fillColor=#ffffc0;strokeColor=#ff0000;labelBackgroundColor=none;" vertex="1" parent="1">
          <mxGeometry x="-80" y="650" width="120" height="40" as="geometry" />
        </mxCell>
      </root>
    </mxGraphModel>
  </diagram>
</mxfile>
